<?xml version="1.0" encoding="utf-8"?>
<!-- Svg Vector Icons : http://www.onlinewebfonts.com/icon -->
<!DOCTYPE svg PUBLIC "-//W3C//DTD SVG 1.1//EN" "http://www.w3.org/Graphics/SVG/1.1/DTD/svg11.dtd">
<svg version="1.1" xmlns="http://www.w3.org/2000/svg" xmlns:xlink="http://www.w3.org/1999/xlink" x="0px" y="0px" viewBox="0 0 1000 1000" enable-background="new 0 0 1000 1000" xml:space="preserve">
<metadata> Svg Vector Icons : http://www.onlinewebfonts.com/icon </metadata>
<g><path d="M278,584.7c-3.1,10.4-44.5,155.9-47,164.9c-2.2,8,4.6,15.1,12.7,12.7c12.3-3.5,156.6-45,163.8-47.1c9-2.6,10.8-12.6,5.3-18c-4.2-4.2-111.1-111.5-117.2-117.7C289.7,573.5,280.3,577.1,278,584.7z M310.4,550.2l131.9,132.5L882,241.1L750.1,108.6L310.4,550.2z M802.8,921.8c0,17.2-13.9,31.2-31.1,31.2h-684c-17.2,0-31.1-14-31.1-31.2V234.9c0-17.2,13.9-31.2,31.1-31.2h481.9l46.6-46.8H87.7c-42.9,0-77.7,34.9-77.7,78.1v686.9c0,43.1,34.8,78,77.7,78h684c42.9,0,77.7-34.9,77.7-78V386.4l-46.6,42.1L802.8,921.8L802.8,921.8z M980.9,97.6L893,9.3c-12.1-12.2-31.8-12.2-44,0l-33,33.1l131.9,132.5l33-33.1C993,129.5,993,109.8,980.9,97.6z"/></g>
</svg>